<?xml version="1.0" encoding="UTF-8" standalone="no"?>
<svg width="800" height="450" viewBox="0 0 800 450" fill="none" xmlns="http://www.w3.org/2000/svg">
  <rect width="800" height="450" fill="#1a1a2e"/>
  <g filter="url(#filter0_d)">
    <rect x="100" y="50" width="600" height="350" rx="20" fill="#16213e"/>
  </g>
  <text x="400" y="160" font-family="Arial, sans-serif" font-size="32" font-weight="bold" text-anchor="middle" fill="#e94560">VIRTUAL TRY-ON</text>
  <text x="400" y="210" font-family="Arial, sans-serif" font-size="18" text-anchor="middle" fill="#ffffff">Prueba prendas de vestir virtualmente con IA</text>
  
  <!-- Icon - Shirt -->
  <g transform="translate(320, 260) scale(1.5)">
    <path d="M30 10L15 2.5L0 10V30L10 25V35H20V25L30 30V10Z" fill="#e94560"/>
  </g>
  
  <!-- Icon - Camera -->
  <g transform="translate(440, 260) scale(1.5)">
    <circle cx="15" cy="16" r="6" fill="#e94560"/>
    <path d="M28 8L24 4H6L2 8H0V28H30V8H28ZM15 26C10.03 26 6 21.97 6 17C6 12.03 10.03 8 15 8C19.97 8 24 12.03 24 17C24 21.97 19.97 26 15 26Z" fill="#e94560"/>
  </g>
  
  <text x="400" y="340" font-family="Arial, sans-serif" font-size="14" text-anchor="middle" fill="#ffffff">Haz clic para ver el tutorial</text>
  
  <!-- Play button -->
  <circle cx="400" cy="225" r="40" fill="#0F2041" fill-opacity="0.7"/>
  <path d="M425 225L385 250V200L425 225Z" fill="#e94560"/>
  
  <defs>
    <filter id="filter0_d" x="90" y="40" width="620" height="370" filterUnits="userSpaceOnUse" color-interpolation-filters="sRGB">
      <feFlood flood-opacity="0" result="BackgroundImageFix"/>
      <feColorMatrix in="SourceAlpha" type="matrix" values="0 0 0 0 0 0 0 0 0 0 0 0 0 0 0 0 0 0 127 0"/>
      <feOffset/>
      <feGaussianBlur stdDeviation="5"/>
      <feColorMatrix type="matrix" values="0 0 0 0 0.913725 0 0 0 0 0.270588 0 0 0 0 0.376471 0 0 0 0.3 0"/>
      <feBlend mode="normal" in2="BackgroundImageFix" result="effect1_dropShadow"/>
      <feBlend mode="normal" in="SourceGraphic" in2="effect1_dropShadow" result="shape"/>
    </filter>
  </defs>
</svg>