<svg width="220" height="220" viewBox="0 0 220 220" fill="none" xmlns="http://www.w3.org/2000/svg">
  <path d="M110 220C170.751 220 220 170.751 220 110C220 49.2487 170.751 0 110 0C49.2487 0 0 49.2487 0 110C0 170.751 49.2487 220 110 220Z" fill="url(#paint0_linear)"/>
  <path d="M145 83C145 90.732 138.732 97 131 97C123.268 97 117 90.732 117 83C117 75.268 123.268 69 131 69C138.732 69 145 75.268 145 83Z" fill="white"/>
  <path d="M75 83C75 90.732 68.732 97 61 97C53.268 97 47 90.732 47 83C47 75.268 53.268 69 61 69C68.732 69 75 75.268 75 83Z" fill="white"/>
  <rect x="100" y="58" width="12" height="104" rx="6" fill="white"/>
  <rect x="75" y="75" width="12" height="70" rx="6" fill="white"/>
  <rect x="125" y="75" width="12" height="70" rx="6" fill="white"/>
  <rect x="50" y="95" width="12" height="30" rx="6" fill="white"/>
  <rect x="150" y="95" width="12" height="30" rx="6" fill="white"/>
  <defs>
    <linearGradient id="paint0_linear" x1="0" y1="0" x2="220" y2="220" gradientUnits="userSpaceOnUse">
      <stop stop-color="#FF7A00"/>
      <stop offset="1" stop-color="#FF3D00"/>
    </linearGradient>
  </defs>
</svg>