<?xml version="1.0" encoding="UTF-8"?>
<svg width="24px" height="24px" viewBox="0 0 24 24" version="1.1" xmlns="http://www.w3.org/2000/svg" xmlns:xlink="http://www.w3.org/1999/xlink">
    <title>World Icon</title>
    <g stroke="none" stroke-width="1" fill="none" fill-rule="evenodd">
        <g fill="#FF8C38" fill-rule="nonzero">
            <path d="M12,2 C17.52,2 22,6.48 22,12 C22,17.52 17.52,22 12,22 C6.48,22 2,17.52 2,12 C2,6.48 6.48,2 12,2 Z M12,4 C7.58,4 4,7.58 4,12 C4,16.42 7.58,20 12,20 C16.42,20 20,16.42 20,12 C20,7.58 16.42,4 12,4 Z M11.5,12.0003 L11.5,6.5 L12.5,6.5 L12.5,12.0003 L17.0007,12.0003 L17.0007,13.0003 L11.5,13.0003 L11.5,12.0003 Z"></path>
            <path d="M12,2 C17.52,2 22,6.48 22,12 C22,17.52 17.52,22 12,22 C6.48,22 2,17.52 2,12 C2,6.48 6.48,2 12,2 Z M16.95,7.06 C16.36,6.04 14.69,5.34 13.15,5.5 C13.41,5.72 13.64,6.13 13.83,6.69 C14.02,7.24 14.18,7.92 14.29,8.73 L16.95,7.06 Z M9.5,5.89 C8.5,6.23 7.27,7.08 6.99,8.72 C7.69,9.04 8.5,9.3 9.41,9.5 C9.38,8.58 9.4,7.76 9.47,7.04 C9.54,6.33 9.59,5.96 9.5,5.89 Z M15.29,15.5 L17.25,13.78 C17.5,13.1 17.72,12.36 17.89,11.57 C16.71,11.91 15.4,12.19 14,12.37 L14,13.5 C14,14.35 14.63,15.5 15.29,15.5 Z M7,8.77 C7,9.67 7.1,11.63 7.66,13.43 C8.2,15.22 9.23,17 11,17 C12.3,17 12.98,16.16 12.98,14.5 L12.98,12.65 C10.9,12.84 8.93,12.86 7.1,12.71 L7,8.77 Z"></path>
        </g>
    </g>
</svg>